<?xml version="1.0" encoding="UTF-8"?><svg id="Layer_1" xmlns="http://www.w3.org/2000/svg" viewBox="0 0 281.55 131.71"><defs><style>.cls-1{fill:#fc2285;}.cls-2{fill:#f8f800;}.cls-3{fill:#010402;}.cls-4{fill:#010a03;}.cls-5{fill:#030308;}.cls-6{fill:#006400;}.cls-7{fill:#007400;}.cls-8{fill:#008f1c;}.cls-9{fill:#008714;}.cls-10{fill:#008716;}.cls-11{fill:#008815;}.cls-12{fill:#008315;}.cls-13{fill:#009316;}.cls-14{fill:#009320;}.cls-15{fill:#020b04;}.cls-16{fill:#6a14bd;}.cls-17{fill:#6b14be;}.cls-18{fill:#000301;}.cls-19{fill:#000702;}.cls-20{fill:#000108;}.cls-21{fill:#000500;}.cls-22{fill:#000501;}.cls-23{fill:#000200;}.cls-24{fill:#000201;}.cls-25{fill:#000e03;}.cls-26{fill:#007300;}.cls-27{fill:#e88efd;}.cls-28{fill:#eb1073;}.cls-29{fill:#fe0001;}.cls-30{fill:#ec1375;}.cls-31{fill:#ea92fe;}.cls-32{fill:#fbfb1f;}.cls-33{fill:#fefe00;}.cls-34{fill:#e2e200;}.cls-35{fill:#f01578;}.cls-36{fill:#fcfc2f;}.cls-37{fill:#f3197c;}.cls-38{fill:#6614b4;}.cls-39{fill:#9a44ed;}.cls-40{fill:#9a44ee;}.cls-41{fill:#6d379e;}.cls-42{fill:#6b9076;}.cls-43{fill:#7d41ae;}.cls-44{fill:#7f29d3;}.cls-45{fill:#9943ec;}.cls-46{fill:#7d64fe;}.cls-47{fill:#8630da;}.cls-48{fill:#c26cfe;}.cls-49{fill:#b80041;}.cls-50{fill:#ba5dfe;}.cls-51{fill:#a24cf6;}.cls-52{fill:#bc66fc;}.cls-53{fill:#c36dfd;}.cls-54{fill:#9049e5;}.cls-55{fill:#9441e4;}.cls-56{fill:#9158a4;}.cls-57{fill:#32154b;}.cls-58{fill:#bb65fb;}.cls-59{fill:#8e4cc0;}.cls-60{fill:#8f47ce;}.cls-61{fill:#865298;}.cls-62{fill:#cf74fe;}.cls-63{fill:#ce7ee8;}.cls-64{fill:#d2005a;}.cls-65{fill:#a84afc;}.cls-66{fill:#ad57fb;}.cls-67{fill:#ad57fd;}.cls-68{fill:#ad57fe;}.cls-69{fill:#af5afa;}.cls-70{fill:#b15bfb;}.cls-71{fill:#a665c0;}.cls-72{fill:#a85adb;}.cls-73{fill:#cb74fe;}.cls-74{fill:#ca73fd;}.cls-75{fill:#df89fd;}.cls-76{fill:#d5005e;}.cls-77{fill:#d4005c;}.cls-78{fill:#de0366;}.cls-79{fill:#dbdb00;}.cls-80{fill:#dca100;}.cls-81{fill:#dc85fe;}.cls-82{fill:#d57efe;}.cls-83{fill:#e089fe;}.cls-84{fill:#df88fd;}.cls-85{fill:#c972fd;}.cls-86{fill:#e3086b;}.cls-87{fill:#d79a08;}.cls-88{fill:#14081e;}.cls-89{fill:#13081c;}.cls-90{fill:#170c22;}.cls-91{fill:#1e2c30;}.cls-92{fill:#1d8e9b;}.cls-93{fill:#24083e;}.cls-94{fill:#212105;}.cls-95{fill:#221130;}.cls-96{fill:#086618;}.cls-97{fill:#411f62;}.cls-98{fill:#07220e;}.cls-99{fill:#0d080f;}.cls-100{fill:#452bd5;}.cls-101{fill:#17b643;}.cls-102{fill:#1d2d2f;}.cls-103{fill:#1c2e2d;}.cls-104{fill:#1e0d2e;}.cls-105{fill:#367822;}.cls-106{fill:#361c4a;}.cls-107{fill:#953fe8;}.cls-108{fill:#832cd6;}.cls-109{fill:#9c4ee4;}.cls-110{fill:#9c45e9;}.cls-111{fill:#713c99;}.cls-112{fill:#7158fe;}.cls-113{fill:#93d42c;}.cls-114{fill:#731cc6;}.cls-115{fill:#9640ea;}.cls-116{fill:#8a34de;}.cls-117{fill:#543460;}.cls-118{fill:#8832db;}.cls-119{fill:#8b35df;}.cls-120{fill:#7056fe;}.cls-121{fill:#290d45;}.cls-122{fill:#290b45;}.cls-123{fill:#5a40ea;}.cls-124{fill:#480c82;}.cls-125{fill:#4776b8;}.cls-126{fill:#2bac42;}.cls-127{fill:#36ce60;}.cls-128{fill:#39d865;}.cls-129{fill:#3d2cdd;}.cls-130{fill:#583564;}.cls-131{fill:#3a1a59;}.cls-132{fill:#581c92;}.cls-133{fill:#572686;}.cls-134{fill:#602b8d;}.cls-135{fill:#4738eb;}.cls-136{fill:#7b36bd;}.cls-137{fill:#7a61fe;}.cls-138{fill:#5036e0;}.cls-139{fill:#271239;}.cls-140{fill:#522979;}</style></defs><rect x="-.65" y="-.44" width="283.46" height="132.14"/><g><path d="M6.78,8.71c89.09,0,178.19,0,267.28-.03,1.36,0,1.76,.17,1.75,1.67-.06,38.34-.04,76.68-.04,115.03-.61,.32-1.27,.16-1.91,.16-88.36,0-176.72,0-265.07,0-2.44,0-2.18,.26-2.18-2.15,0-37.59,0-75.18,0-112.77,0-.64-.16-1.3,.16-1.91Z"/><path class="cls-91" d="M251.04,57.01c-.1,.39-.34,.8-.3,1.18,.57,5.03-1.84,9.33-3.33,13.85-1.49,4.5-3.1,8.97-4.6,13.46-.54,1.62-.36,3.37-.47,5.04-.34,5.18-.26,10.36,.77,15.51,.72,3.6,1.19,7.25,1.58,10.9,.23,2.1-.54,2.98-2.15,3.14-1.61,.15-2.85-.86-3.08-2.7-.8-6.25-1.9-12.45-2.75-18.69-.33-2.44,.24-5,.41-7.5,0-.11,.1-.23,.09-.34-.64-7.04,3.1-12.98,4.88-19.42,.53-1.91,1.21-3.8,1.97-5.63,1.4-3.38,1.54-6.93,1.68-10.5,2-.16,3.79,.32,5.3,1.69Z"/><path class="cls-42" d="M189.61,64.42c1.04,10.33,1.93,20.69,3.18,30.99,.86,7.05,2.96,13.88,4.42,20.83,.51,2.41,.22,3.49-1.2,3.82-1.44,.33-2.25-.56-2.76-2.87-1.34-6.13-2.7-12.26-4.08-18.39-.83-3.68-.84-7.45-1.26-11.18-.81-7.11-1.48-14.23-2.21-21.35,.98-1.3,2.18-2.13,3.91-1.86Z"/><path class="cls-92" d="M104.06,75.99c.29,5.97,.57,11.95,.89,17.92,.17,3.15-.8,6.13-1.26,9.19-.82,5.51-1.81,10.99-2.7,16.48-.28,1.7-1.39,2.78-2.76,2.57-1.45-.22-2.14-1.43-1.84-3.21,1.25-7.28,2.58-14.55,3.73-21.84,.71-4.5-.17-9.02-.26-13.53-.04-2.17-.17-4.34-.27-6.5,.09-.11,.21-.14,.34-.11,.11,.04,.2,.11,.27,.19,.07,.02,.1,.04,.1,.04,.01,0,.02-.06,.02-.15,0-.1-.01-.15-.03-.16-.33-.95-.42-1.94-.7-2.89-.06-2.02-.42-4.11,1.2-5.79,.75,.17,.77,.86,.83,1.38,.26,2.12,.79,4.11,2.28,5.73,.16,.18,.12,.44,.15,.67Z"/><path class="cls-6" d="M38.59,77.75c.51,4.23,1.06,8.46,1.53,12.7,.33,3.02,.92,6,.94,9.06,.02,6.09,.22,12.18,.63,18.26,.04,.53,.08,1.07,0,1.58-.22,1.39-.85,2.51-2.45,2.49-1.59-.02-2.19-1.14-2.41-2.53-.02-.11,0-.23,0-.35-.13-5.51-.31-11.02-.37-16.53-.04-4.46-.76-8.84-1.29-13.25-.52-4.35-.96-8.71-1.9-12.99-.17-.8-.47-1.57-.71-2.35,.06-.48,.4-.47,.76-.43,1.71,.93,3.11,2.29,4.73,3.34,.35,.22,.64,.52,.56,1.01Z"/><path class="cls-14" d="M254.99,20.68c1.18,.22,2.09,1.28,3.74,1.18-1.11-1.68-1.98-3.24-3.09-4.62-1-1.24-.69-2.35-.15-3.58,.3-.68,.6-.7,1.16-.23,3.92,3.27,7.65,6.74,11.37,10.23,.9,.84-.01,1.32,0,1.97-.34,.2-.64,.05-.95-.08-1.25-.97-2.48-1.97-3.66-3.02-.43-.38-.88-1.24-1.57-.66-.65,.55-.82,1.39-.31,2.24,.52,.86,1.33,1.49,1.88,2.32,.56,.82,1.33,1.49,1.8,2.38,.5,1.23-.17,2.2-.68,3.21-.86-.21-.82-.71-.43-1.32-.53,.34-1.05,.69-1.73,.47-.34-.11-.59-.33-.82-.58-.41-.48-.84-.95-1.29-1.39-1.52-1.51-1.62-1.49-2.57,.45-.93,1.39,.08,2.57,.41,3.82,.17,.63,.6,1.13,.86,1.72-.22,.89-.94,1.43-1.49,2.09-.77,.94-1.59,1.67-2.92,.71-.67-.48-1.76,.18-2.43-.62,.5-2.13-.37-3.82-1.76-5.33-.91-1.82-1.87-3.61-3.08-5.26-.88-1.2-1.27-2.46-.58-3.89,.19-.4,.1-1.05,.68-1.09,.55-.03,.55,.66,.86,.98,1.1,1.51,2.98,1.68,4.67,2.76-.54-1.09-1.03-1.87-1.62-2.6-.83-1.24-1.51-2.59-2.78-3.56,1.37-.27,2.63-.4,3.87-.6,1.09-.18,2.23-.23,2.11,1.47-.01,.2,.32,.32,.52,.43Z"/><path class="cls-8" d="M247.93,23.15c-.49-.18-.28-.72-.54-1.03q-.7,2.86,1.69,6.68c.64,1.03,1.33,2.04,1.6,3.25-1.59,.39-3.18,.8-4.54,1.8-2.17-.74-4.39-1-6.67-.7-.28-.08-.5-.24-.68-.47-.59-1.19-1.07-2.41-.67-3.78,1.85-1.42,4.08-1.98,6.28-2.78-1.14-.31-2.25-.36-3.37-.27-1.27-.15-2.57-.1-3.73-.76-.82-1.95-.56-2.63,1.27-3.37,1.24-.5,2.5-.96,3.78-1.39,.84-.28,1.57-.69,1.85-1.81-2.46,.56-4.78,1.08-7.01,1.95-.37,.14-.7,.47-1.13,.18-.64-.77-.8-1.57-.18-2.44-.36-1.94,.67-2.48,2.41-2.93,4.57-1.18,9.17-1.93,13.88-2,.62,0,1.47-.22,1.59,.65,.15,1.05-.86,.7-1.38,.83-1.42,.36-2.86,.61-4.29,.95-1.08,.25-1.84,2.33-1.21,3.22,.31,.44,.72,.21,1.11,.16,2.19-.26,4.39-.51,6.64-.76,.07,.82-.38,1.68,.35,2.34-.44,0-1.02-.16-.94-.57,.29-1.6-.84-1.19-1.59-1.15-1.16,.07-2.28,.48-3.54,.41,1.66,.64,1.92,2.34,2.83,3.53-.6,.46-1.23,.21-1.83,.03-.7-.22-1.37-.31-1.97,.22Z"/><path class="cls-128" d="M252.12,37.19c1.06,.63,2.58-.56,3.48,.94,.19,.31,.68-.28,.95-.56,.78-.79,1.53-1.61,2.29-2.41,.35-.4,.79-.38,1.25-.29,2.09,1.08,2.14,1.42,.46,3.21-.29,.29-.59,.58-.88,.87-1.01,.84-1.7,2.06-2.83,2.52,.75-.05,1.58-.54,2.49-.74,1.52-.35,3.01-.84,4.58-.95,.63,.04,1.07,.43,1.5,.84,1.18,1.14,1.17,1.62-.05,2.69-1.67,1.45-3.56,2.62-5.3,4.17,.98,.74,1.59,.25,2.22-.32,1.09-.99,1.84-2.28,2.93-3.27,1.35-1.22,1.84-1.14,2.77,.51,1.57,2.1,1.55,2.07-.5,3.68-3.67,2.88-7.57,5.41-11.52,7.87-.43,.15-.93,.52-1-.35,1.61-1.13,3.18-2.33,4.85-3.35,.95-.58,.99-1.01,.2-1.67-.36-.3-.69-.64-1.05-.94-2.85-2.36-1.72-2.25-4.72-.3-1.67,.18-2.49-.39-2.95-2.03,.81-.98,2.08-.97,3.13-1.42,.58-.25,1.13-.43,.77-1.23,.65-1.06,.24-1.85-.63-2.55-.95-.77-1.98-1.42-2.98-2.12-.57-.4-1.21-.77-1.04-1.64,.35-.63,.74-1.21,1.59-1.15Z"/><path class="cls-120" d="M191.81,34.34c.13,.57,.25,1.13,.38,1.7,.25,.17,.47,.05,.59-.15,2.13-3.73,5.91-2.24,9.02-2.84,.67-.13,.69,.51,.81,.94,.48,1.76,.91,3.52,1.41,5.27,.21,.74,.01,1.22-.61,1.64-.52,.35-.97,.79-1.48,1.2,.67,.83,1.99-.11,2.26,1.14-2.73-.25-4.73,1.1-6.6,2.87-.7,.67-1.53,1.3-2.64,1.15-.28-.13-.51-.33-.61-.6-.81-2.15-2.51-3.14-4.65-3.56-.34-.07-.68-.18-.99-.37-.8-.82-.79-1.88-.12-2.55,1.65-1.66,2.66-3.61,3.23-5.84Z"/><path class="cls-138" d="M189.61,64.42c-1.4,.42-2.64,1.17-3.91,1.86-1,.64-1.74,.51-2.39-.59-.62-1.04-1.43-1.98-2.19-2.93-.99-1.23-2.15-2.37-.78-4.08,.43-.54-.14-.63-.57-.63,.07-.96,.87-.97,1.51-1.13,2.42-.6,4.73-1.39,6.2-3.61,.43-.16,.83-.17,1.15,.22-.14-.2,.23,.28,.03,.17-.03-.02-.11,.21-.1,.21,.48-.02,.95-.24,1.43-.05,.31,.12,.51,.18,.29-.26,.58-.73,1.36-.98,2.26-.95,2.06,1.58,2.32,2.31,1.45,4.6-.62,1.64-1,3.35-1.53,5.01-.25-.08-.61-.34-.69,.09-.23,1.23-1.3,1.52-2.14,2.07Z"/><path class="cls-83" d="M112.36,68.6c0,.22,0,.45,0,.67,.02,1.09,.62,2.24-.35,3.23-.12-.12-.25-.23-.37-.35-.43-.31-.44-.31-.46-.16-.07,.8-.29,1.55-.59,2.28-.23,.73-.45,1.46-.68,2.19-.33-.34-.2-.77-.23-1.16,0,.4-.1,.83,.23,1.17-.03,.94-.14,1.6-1.19,.59-1.5-1.44-3.06-2.83-4.6-4.24-1.27-.28-1.08-1.23-.87-2.09,.39-1.6,.98-3.14,1.62-4.65,.51-1.21,.48-2.35-.07-3.56-.93-2.02-1.9-4.03-2.68-6.12-.05-.28-.03-.56,.07-.83,.14-.27,.34-.44,.67-.41,1.79,1.04,3.77,1.61,5.67,2.38,.78,.31,1.59,.63,1.87,1.49,.77,2.39,1.66,4.75,1.9,7.28-.24,.72-.19,1.51-.44,2.23-.08,.22-.06-.07-.05,.16,0,.07,.07-.13,.16-.15,.14-.03,.27,0,.38,.06Z"/><path class="cls-115" d="M122.31,45.69c1.51,.03,1.79,.7,1.1,1.99-.38,.72-.6,1.52-.9,2.28-.06,.8-.62,1.03-1.3,1.15-.91,.16-1.83,.31-2.73,.52-1.61,.22-3.21,.45-4.82,.72-.69,.12-1.08,.36-.89,1.12-.11,.25-.3,.42-.56,.48-2.4-.8-4.81-1-7.22-.02-.5,.1-.91-.06-1.25-.43-.26-.54-.07-1.09-.03-1.64,.04-.75,.02-1.49,.01-2.24,0-.29,.02-.58,.08-.87,.24-1.06,1.12-1.43,1.95-1.88,3.08-1.65,6.45-2.09,9.86-2.36,1.75-.14,3.47-.52,5.23,.09,.65,.23,1.09,.56,1.45,1.08Z"/><path class="cls-9" d="M240.49,48.58c-1.42,1.25-2.4,.74-2.95-1.65-.24-1.05-.84-1.92-1.23-2.89-.34-.83-1.07-.99-1.75-.73-.76,.29-.15,.94-.05,1.37,.45,1.94,.94,3.87,1.53,5.77,.26,.85,.08,1.27-.66,1.7-.96,.56-1.24-.14-1.65-.69-1.47-2.05-3.01-4.05-4.39-6.15-1.09-1.65-.96-3.7-1.51-5.54-.28-.94-.23-1.96-.71-2.86-.25-.69-.65-1.49,.32-1.88,1.42-.57,2.69-.2,3.19,.89,.69,1.49,.95,3.13,1.46,4.68,.2,.61,.18,1.6,1.26,1.23,.93-.32,1.42-.97,.99-2.05-.4-1.01-1.27-1.87-1.08-3.08,1.17-.44,2.26-1.07,3.42-1.55,.2,.23,.35,.51,.3,.79-.23,1.41,.64,1.59,1.71,1.57,.3,1.39,.95,2.61,1.75,3.77,.48,1.19,.74,2.44,.95,3.7,.03,.41,.27,.74,.39,1.12,.41,1.26,.2,2.2-1.28,2.5Z"/><path class="cls-137" d="M191.81,34.34c.29,2.28-.67,3.99-2.37,5.42-.93,.78-1.35,1.73-.41,2.83-1.38,1.2-3.14,1.81-4.5,3.03-.98,.15-1.64-.37-1.88-1.21-.63-2.23-1.52-4.42-1.42-6.8-1.22-2.67,.36-4.24,2.13-5.91,2.85-2.68,2.74-2.62,6.24-1.22,1.95,.78,2.56,1.94,2.23,3.85Z"/><path class="cls-100" d="M181.22,37.62c.56,2.05,1.19,4.1,1.67,6.17,.23,1,.69,1.56,1.71,1.63,.21,1.6-.3,3.2-.06,4.81-1.52,1.73-2.33,1.9-4.23,.74-1.4-.85-2.91-1.53-4.04-2.77-2.81-1.76-3.04-4.94-4.2-7.6-.28-.64-.14-1.13,.5-1.46,.21-.1,.41-.23,.6-.37,2.49-1.69,4.91-3.92,8.05-1.15Z"/><path class="cls-46" d="M192.44,62.25c-.55-1.73,.32-3.25,1.02-4.62,1.01-2,.44-3.38-.98-4.74,.74-1.52,1.8-2.86,2.43-4.44,3.05,.12,5.48,2.27,6.06,5.35,.66,.81,1.29,1.64,1.98,2.42,.5,.56,.56,1.08,.17,1.73-.36,.6-.73,1.22-.91,1.89-.82,3.16-2.95,4.24-6.07,4.57-2.09,.22-3.17-.23-3.69-2.17Z"/><path class="cls-101" d="M236.59,35.17c-.77,1.15-1.77,1.81-3.22,1.42-.78,.21-1.63,.22-2.09-.45-.52-.76,.16-1.44,.56-2.06,.69-1.09,1.33-2.21,2.05-3.28,.38-.57,.47-1.08-.3-1.41-.65-.29-1.14-.17-1.42,.53-.46,1.15-.66,2.37-1.12,3.52-.39,.98-.94,1.87-2.21,.98-.39-.1-.78-.25-1.17-.28-.76-.06-.92-.3-.77-1.12,1.13-5.94,4.72-10.41,8.64-14.7,.06-.07,.22-.06,.33-.08-.08,.88,.13,1.71,.42,2.52,.34,1.2-.51,2.08-.83,3.09-.21,.65-.73,1.18-.77,1.94,1.15,.5,1.72-.8,2.67-.84,1.29,.25,2.66,.07,3.87,.74-.02,1.01-.85,1.41-1.48,1.95-.47,.4-1.08,.65-1.43,1.2-.07,1.34,.45,2.57,.73,3.84-.32,1.33-1.04,2.27-2.47,2.5Z"/><path class="cls-17" d="M72.42,53.81c-1.03-1.01-2.58-1.04-3.85-2.06,2.04-1.44,4.02-2.85,6-4.25,.53-.45-.06-2.22,1.59-1.34,.5,.82,1.38,1,2.17,1.37,3.96,1.85,8.06,3.06,12.47,3.03,.41,0,.81,.09,1.16,.35,.57,.67,.8,1.4,.35,2.23-.23,.23-.51,.34-.81,.4-1.56,.31-3.16,.38-4.73,.65-3.53,.38-7.06,.69-10.6,.98-.99,.22-1.93,.13-2.76-.49-.33-.3-.76-.48-1.01-.88Z"/><path class="cls-123" d="M176.27,48.2c1.5,.28,2.6,1.34,3.77,2.15,1.53,1.05,2.81,1.23,4.21-.04,1.17,.97,2.48,1.8,3.27,3.16-.97,2.91-3.74,3.05-6.04,3.84-.6,.21-1.27,.19-1.72,.73-.84,.7-1.65,.5-2.58,.07-4.41-2.06-4.22-2.03-3.92-6.81,.14-2.27,1.47-2.6,3.01-3.09Z"/><path class="cls-82" d="M80.2,38.35c-1.35-1.6-2.93-3.02-3.82-4.97,2.43-.42,4.88,.02,7.31-.23,.56-.06,.99,.35,1.32,.76,1.29,1.58,2.74,3.03,3.8,4.79,.39,1.68,1.53,2.88,2.65,4.08,.96,1.03,1.9,2.08,2.63,3.29-.05,.77-.37,1.34-1.17,1.56-1.32-.34-2.64-.67-3.9-1.22-.76-.34-1.56-.6-2.29-1.02-2.16-1.68-3.92-3.78-5.88-5.66-.41-.39-.36-.96-.66-1.37Z"/><path class="cls-48" d="M93.28,75.63c-1.09,.6-.82,1.97-1.64,2.84-1.2-2.53-1.23-5.4-2.6-7.81-.09-.14-.12-.29-.09-.46,.24-.77,.69-1.42,1.12-2.09,.29-.44,.6-.87,.7-1.4,.09-.37,.25-.71,.53-.99,.39-.32,.74-.68,1.01-1.11,.25-.35,.47-.72,.69-1.09,.18-.32,.28-.67,.38-1.02,.14-.44,.15-.9,.17-1.36,.01-.33,.05-.65,.14-.97,.54-1.31,.93-2.67,1.41-4.01,.88-.28,1.58,.22,2.33,.5,1.52,.26,1.86,1.09,1.7,2.62-.43,4.24-1.17,8.34-3.66,11.95-.93,1.35-1.26,3.02-2.2,4.38Z"/><path class="cls-68" d="M99.26,28.14c.22-.06,.43-.12,.65-.18,.75,.64,.26,1.53,.46,2.28,.13,.37,.06,.78,.17,1.14,.13,.43,.42,.69,.81,.17,.06-2.82,2.08-4.32,3.97-5.91,1.05-.36,.56,.4,.61,.82,.49,3.81-1.77,6.62-3.55,9.57-1.37,2.26-2.67,4.52-2.88,7.23-.18,.78-.68,1.3-1.37,1.66-.72,.18-1.44,.48-2.18,.06-1.91-3.23-1.86-6.55-.43-9.93,.43-.17,.77-.28,.99-.87,.76-2.08,1.74-4.07,2.76-6.04Z"/><path class="cls-11" d="M260.24,37.95c1-.94,1.76-1.87-.02-2.79-.1-.52-.09-1.04-.02-1.57,.37-1.18,.43-2.5,1.47-3.38,.36,.25,.63,.94,1.09,.66,1.45-.89,1.3,.51,1.71,1.1,.5,.44,.38,1.05,.43,1.61,.04,.41-.26,1.07,.46,1.07,.68,0,1.44-.16,1.54-1.06,.06-.57-.06-1.16,.16-1.71,.53-.6,.41-1.33,.42-2.04-.01-.23-.38,.1-.17,0,.08-.04,.13,0,.13,.11-.02,.48,.23,1-.25,1.4-1.34-1.54-1.07-3.41-1.04-5.22,0-.61,.66-.72,1.16-.86,.23,.12,.46,.24,.7,.35,.76,.79,2.37,.11,2.71,1.19,.29,.92-.1,2.07-.24,3.1-.6,4.41-1.21,8.81-1.82,13.21-.05,.37-.27,.64-.63,.78-.7-.59-.77-1.41-.82-2.23-.06-.94-.26-1.85-.4-2.77-.1-.7-.43-1.25-1.2-1.3-.83-.05-.85,.65-.98,1.2-.11,.45-.12,.94-.54,1.25-1.64,.35-3.28,.7-4.93,1.06-.47-.78,.03-1.4,.36-2.04,.29-.35,.6-.68,.72-1.14Z"/><path class="cls-112" d="M200.97,53.81c-.5-.77-1.03-1.52-1.48-2.31-1-1.73-2.66-2.45-4.46-2.96-.53-.44-.49-.92-.08-1.41,1.85-.57,3.14-1.96,4.53-3.17,1.45-1.28,3.01-1.32,4.7-.72,1.08,1.59,2.15,3.19,3.23,4.78,.24,.35,.45,.68,.18,1.12-.87,1.38-1.73,2.78-2.61,4.16-.37,.58-.93,.28-1.43,.31-.86,.05-1.8-.73-2.58,.21Z"/><path class="cls-35" d="M46.38,50.71c-.22,1.2-.51,2.38-1.09,3.47-.3,.37-.33,.86-.54,1.27-.56,1.1-.34,1.87,.92,2.21l-.03-.02c.27,.39,.77,.5,1.18,.92-.83,.63-1.98,.86-2,2.18,0,.62-.58,.7-.98,.19-.65-.82-1.37-.73-2.17-.3-.89,.37-1.78,.5-2.69,.09-.45-.33-.6-.84-.75-1.33-.47-1.66-1.31-3.06-2.71-4.11-.47-.36-.82-.81-.87-1.44,.39-3.72,1.63-4.55,5.19-3.81,1.76,.36,3.6,.07,5.4,.1,.49,0,1.1-.26,1.14,.59Z"/><path class="cls-26" d="M240.49,48.58c1.97-1.01,.62-2.39,.39-3.63,1.26,.16,2.01,1.25,3.1,1.72,.57,.25,1.11,.72,1.65-.01,.54-.47,.77-1.25,1.51-1.53,.51-.12,.98,.06,1.46,.22,1.01,.36,1.81,1.05,2.69,1.63,.04,.07,.08,.14,.12,.21,.49,1.31,1.54,1.88,2.82,2.14,.59,1.44,.41,2.2-1.4,1.68-.43-.12-.93,.02-1.4,.03-1-.3-2.05-.37-3.04-.73-.71-.26-1.2,0-1.58,.67-.86,1.55-.74,1.82,1.03,2.31,1.11,.3,2.31,.42,3.22,1.25,.26,.11,.56,.17,.79,.34,.49,.35,1.69-.03,1.48,.93-.22,1.01-.98,1.82-2.28,1.22-1.77-.56-3.53-1.13-5.3-1.69-3.3-.51-6.59-1.01-9.9-1.52,1.18-2.29,1.64-2.48,3.86-1.59,.49,.2,.99,.37,1.48,.57,2.63,1.07,2.56,1.05,3.35-1.65,.43-1.46,.05-2.11-1.44-2.23-.87-.07-1.69-.54-2.59-.3Z"/><path class="cls-81" d="M98.21,44.54c.35-.43,.7-.87,1.05-1.3,.96-2.07,2.83-3.39,4.22-5.11,1.73-2.13,3.5-4.23,5.36-6.26,.56-.61,1.18-1.12,2.02-1.29,1.17-.5,2.34-1.01,3.51-1.51,.67-.02,.66,.34,.46,.82-1.18,2.1-2.35,4.2-3.53,6.31,.45,1.68-1.34,1.93-1.97,3.05,2.35-.22,4.66-.74,6.93,.09,.02,.77-.62,.74-1.1,.84-2.42,.53-4.87,.53-7.3,.21-1.67-.22-2.24,.09-2.52,1.71-.1,.57-.09,1.16-.16,1.74-.05,.36-.2,.67-.49,.9-1.53-.93-2.02,1.02-3.18,1.14-1.12-.42-2.38-.47-3.31-1.33Z"/><path class="cls-108" d="M103.93,53.47c.33,.12,.67,.23,1,.35,2.39,.38,4.25,1.87,6.02,3.29,2.08,1.67,4.13,3.43,5.95,5.42,.43,.48,.96,.91,1.2,1.49,.56,1.33,1.71,2.14,2.61,3.17-.38,.22-1.49-.47-.95,.9,.33,.83-.55,.52-.9,.53-2.17,.02-4.33,0-6.5-.01,0,0-.17,.01-.17,.01l-.17-.04c-.25-.69-.24-1.38-.03-2.07-.35-2.54-1.34-4.91-1.96-7.38-.16-.65-.74-.84-1.3-1.04-1.52-.57-3.03-1.18-4.57-1.72-.65-.23-1.14-.56-1.45-1.16-.06-.89,.31-1.5,1.21-1.73Z"/><path class="cls-49" d="M38.92,60.55c.94-.1,1.92,.12,2.81-.38,1.05-.4,1.8-.26,2.34,.91,.37,.81,1.14,1.43,1.54,2.27-.61,.81,.06,1.42,.36,2.07,.56,1.22,1.12,2.44,1.78,3.61,.66,1.18,.17,1.56-.97,1.64-2.15,.14-4.3,.3-6.45,.44-.64-.66-.33-1.44-.14-2.12,.43-1.58,.02-2.68-1.52-3.34-.42-.18-.79-.48-.99-.92-.05-1.53,.5-2.88,1.26-4.16Z"/><path class="cls-85" d="M91.5,53.11c.25-.03,.5-.07,.76-.1,1.19,.64,1.85,1.66,2.16,2.94-.51,.61-1.27,.87-1.86,1.37-3.33,2.48-6.87,4.63-10.57,6.51-2.25,1.14-4.48,.68-6.7-.06,1.3-1.07,2.6-2.13,3.9-3.2,.51-.49,.97-1.04,1.6-1.39,.98-.52,2.03-.91,2.87-1.68,.14-.08,.29-.15,.44-.21,1.55-.63,3.09-1.24,4.2-2.62,.79-.98,2.14-1.04,3.2-1.57Z"/><path class="cls-73" d="M93.28,75.63c.13-2.45,1.51-4.43,2.75-6.34,1.87-2.89,1.96-6.13,2.53-9.29,.04-.23-.07-.5,.02-.7,.66-1.48-.15-2.01-1.43-2.24,1.15-.77,2.36-.99,3.66-.41,.43,.64,.31,1.34,.2,2.04-.85,5.19-1.12,10.43-1.16,15.68,0,.79-.27,1.35-.96,1.71-1.22-.08-1.85,.9-2.59,1.56-.99,.89-1.5,.71-2.02-.38-.27-.57-.66-1.08-1-1.62Z"/><path class="cls-37" d="M19.48,50.31c-.46-1.14-.58-2.34-.84-3.91,2.34,.9,4.47,1.7,6.58,2.54,.8,.32,1.54,.63,2.04-.41,.52,.58,.2,1.09-.17,1.56-1.04,1.34-1.42,2.65,.04,3.98,.35,.32,.47,.79,.36,1.29-1.93,1.93-2.12,4.51-2.65,6.97-.19,.08-.37,.05-.53-.08-.18-.24-.32-.53-.3-.81,.17-1.73-.66-2.65-2.27-3.22-1.85-.66-1.98-2.48-1.86-4,.11-1.38-.1-2.62-.41-3.9Z"/><path class="cls-116" d="M104.54,44.6c.15-.2,.3-.4,.44-.6,1.56-1.84,3.33-3.04,5.92-2.26,1.88,.57,3.89,.71,5.7,1.58,.68,.64,1.21,0,1.72-.27,1.9-.99,3.78-2.04,5.9-3.2-.13,2.31-1.85,3.82-1.91,5.84-2.1-1.1-4.29-.96-6.57-.71-3.57,.38-7.09,.8-10.29,2.59-.55,.31-1.24,.49-1.24,1.32-1.25-.58-1.62-1.77-2.04-2.93,.2-1.48,1.55-.96,2.37-1.35Z"/><path class="cls-28" d="M37.74,64.68q3.37,1.75,2.64,5.39c-.07,.33-.04,.69-.06,1.03-.36,1.7-.72,3.41-1.06,5.11-.11,.56-.09,1.18-.67,1.53-1.79-1.38-3.57-2.76-5.36-4.14-.38-.28-1.03-.41-.5-1.12,.31-.42,.55-.9,.9-1.28,1.07-1.16,1.09-2.36,.23-3.63,.97-1.39,2.44-2.13,3.88-2.89Z"/><path class="cls-77" d="M24.44,62.26c.1,0,.19,0,.29,0,1.08,.97,1.79,2.16,2.11,3.58-.34,1.54-1.55,2.42-2.64,3.37-.66,.58-1.42,.48-2.13,.07-1.25-.72-1.51-.15-1.43,1.01,.06,.86-.02,1.73-.05,2.6,1.08-.06,2.13-.9,3.18,0-4.14,1.51-4.24,1.51-3.89-2.74,.15-1.78-.37-2.71-2.05-3.24-1.21-.38-2.34-1-3.36-1.45,1.16-1.27,2.22-2.53,3.39-3.67,.58-.56,.72-1,.21-1.62,.64-.41,1,.1,1.31,.48,1.06,1.35,2.25,2.22,4.06,1.39,.32-.15,.7-.03,.99,.22Z"/><path class="cls-75" d="M120.7,67.19c-1.21-.26-1.99-.95-2.47-2.14-.39-.98-1.14-1.75-1.9-2.5-3.44-3.39-7.04-6.56-11.41-8.73,.33-1.29,1.49-.65,2.22-.85,1.8-.49,3.59-.26,5.18,.86,1.83,1.39,3.29,3.08,4.18,5.22,2.03,2.6,4.07,5.2,6.1,7.8,.15,.25,.19,.5-.04,.73-.62-.13-1.24-.26-1.86-.39Z"/><path class="cls-51" d="M110.86,30.59c-2.71,2.2-4.63,5.1-6.95,7.64-1.54,1.68-3.1,3.34-4.64,5.01-.2-1.96,.49-3.7,1.46-5.34,1.37-2.31,2.79-4.59,4.15-6.92,.99-1.69,1.06-3.5,.45-5.35,.19-.35,.41-.68,.97-.72,.07,1.52-.48,2.98-.24,4.56,1.04-.18,1.86-.75,2.69-1.24,1.14-.67,1.66-.66,1.51,.87-.05,.51-.47,1.36,.61,1.47Z"/><path class="cls-78" d="M24.44,62.26c-2.58,1.22-4.48,.41-5.88-1.94-.06-.11-.31-.1-.48-.15-1.31-1.06-2.61-2.15-3.94-3.18-1-.77-.64-1.13,.32-1.49,1.26-.47,2.46-1.1,3.74-1.49,1.37-.41,2-1.04,1.37-2.5-.15-.35-.06-.8-.09-1.21,1.11,1.72,.63,3.73,1.01,5.59,.22,1.09,.68,1.84,1.64,2,2.11,.36,2.63,1.6,2.32,3.48-.05,.28,0,.58,0,.88Z"/><path class="cls-47" d="M102.47,56.27c.33,.68,.61,1.4,1.01,2.05,2.3,3.73,2.83,7.49,.58,11.48-.5,.89-1.11,2.04,.08,3.01-.81,1.04,.34,2.14-.08,3.19-2.36-2.03-2.74-4.84-3.04-7.68-.69-.66-.59-1.48-.45-2.29,.48-2.75,1.2-5.46,1.06-8.3-.03-.56-.11-1.36,.84-1.45Z"/><path class="cls-64" d="M46.38,50.71c-.42-.58-1.05-.38-1.62-.42-2.03-.13-4.05,.2-6.09,.04-2.63-.2-2.72-.03-3.39,2.58-.11,.45-.2,.91-.3,1.36-.85,.47-1.65-.03-2.47-.14-1.38-.2-1.92-1.12-2.1-2.39-.17-1.21,.14-2.19,1.18-2.87,.68-.44,1.24-1.06,2.02-1.36,1.92-.02,2.95-1.71,4.52-2.38,.51-.22,.89-1,1.49-.65,.56,.33,.26,1.07,.27,1.63q.1,4.03,4.18,3.8c.64-.04,1.28-.18,1.92-.18,.9,0,.79,.45,.39,.99Z"/><path class="cls-1" d="M33.61,47.51c-.12,1.08-1.12,1.29-1.82,1.73-.98,.61-1.13,1.44-.94,2.42,.19,.95,.31,2,1.67,1.99-.02,.12-.05,.29-.13,.3-1.75,.29-3.4,.94-5.15,1.23,0-.37-.19-.64-.43-.91-1.66-1.92-1.67-2.45,.02-4.47,.33-.4,.43-.79,.41-1.26,.75-1.82,1.5-3.64,2.38-5.79,1.43,1.72,2.7,3.25,3.98,4.78Z"/><path class="cls-86" d="M23.77,72.88c-1.25-.22-2.37,.43-3.55,.53v-5.16c.23-.02,.35-.05,.46-.03,1.01,.18,1.95,1.41,2.83,.91,1.34-.74,2.47-1.93,3.1-3.44,1.69,.62,3.51,1,4.82,2.4-.19,3.53-1.95,4.94-5.46,4.33-.29-.05-.57-.15-.82,.08-.46,.13-.91,.25-1.37,.38Z"/><path class="cls-74" d="M112.72,53.45c-.21-.45-1.16-.41-.88-1.1,.2-.5,.84-.21,1.28-.3,1.71-.35,3.4-.79,5.17-.66,1.5-.18,2.73,.46,3.9,1.27,1.64,1.28,2.4,3.22,4.09,5.07-2.59-.11-4.7-.21-6.81-.3-.3,.13-.6,.07-.81-.14-1.45-1.4-3.3-2.14-5.04-3.06-.36-.19-.73-.37-.9-.78Z"/><path class="cls-40" d="M75.28,63.78c2.42,.43,4.79,.7,7.11-.62,3.2-1.84,6.46-3.56,9.38-5.85,.22-.17,.53-.22,.79-.32,.95,.25,.33,.84,.19,1.2-1.39,3.88-4.24,6.27-8.01,7.69-.1,.04-.22-.02-.33-.08-1.92,.06-3.67,.87-5.53,1.22-.74,.14-1.47,.34-2.36,.55,.56-1.06,1.03-1.96,1.61-3.07-1.1,0-1.99,0-2.88,0-.24,0-.53-.02-.48-.3,.03-.16,.33-.28,.51-.41Z"/><path class="cls-44" d="M95.79,34.81c-.02,.46,.14,1.03-.08,1.38-1.87,3-.25,5.81,.39,8.68-.1,.62-.5,.75-1.05,.65-1.48-1.34-2.57-3.02-3.95-4.44-.56-.58-.56-1.35-.52-2.14,.09-1.85,.52-3.69,.22-5.55,.49,.07,.72-.12,.76-.63,.09-1.31,.21-2.61,.32-3.92,.39-.22,.48,.16,.68,.33,.7,1.29,1.4,2.59,2.11,3.88,.3,.22,.5,.51,.64,.85,.12,.25,.26,.49,.4,.73,.02,.06,.04,.13,.07,.2Z"/><path class="cls-76" d="M25.14,72.5c1.3-.63,2.77-.48,4.15-.95,1.1-.37,1.55-.69,1.53-1.82-.01-.62,.22-1.24,.34-1.86,.85-.7,1.76-1,2.78-.34,1.2,.87,1.49,1.91,.6,3.17-.47,.66-.85,1.4-1.43,1.94-.55,.51,.11,.65,.13,.96-.24,.03-.53-.06-.69,.22-1.25,1.3-2.16,2.87-3.18,4.34-.58,.84-.97,.92-1.37-.13-.53-1.42-1.12-2.81-1.67-4.22-.23-.59-.36-1.26-1.19-1.32Z"/><path class="cls-84" d="M116.6,43.31c-1.78,.11-3.43-.55-5.1-1-1.91-.51-3.63-.56-5.16,.92-.36,.35-.9,.51-1.35,.76-.54-1.32-.14-2.58,.45-3.73,.39-.76,1.23-.64,2.01-.5,2.94,.55,5.87,.55,8.75-.41-.1-.05-.14-.1-.11-.16,.03-.06,.06-.09,.09-.09,1.29-.28,2.59-.56,3.88-.83,.56-.06,1.25-.57,1.5,.44-1.97,1.19-3.32,3.05-4.95,4.6Z"/><path class="cls-107" d="M116.17,39.11c.04,.08,.05,.17,.02,.26-2.6-.04-5.2,.15-8.09,.42,.97-1.63,2.83-1.95,3.19-3.59,.8,.22,1.38-.22,1.88-.72,2.07-2.08,4.77-2.57,7.82-3.09-1.49,2.22-2.63,4.35-4.69,5.8-.2,.14-1.36,.45-.13,.92Z"/><path class="cls-24" d="M228.85,34.4c1.02,.17,1.62-.15,1.87-1.26,.3-1.31,.76-2.58,1.22-3.84,.66-1.81,1.63-.21,2.41-.12,1.15,.13,.57,.86,.23,1.39-.84,1.34-1.65,2.71-2.56,4-.74,1.05-.99,1.75,.71,1.75,.22,0,.43,.17,.65,.26,.51,1.11,1,2.24,1.54,3.34,.37,.74,.3,1.23-.41,1.79-2.05,1.6-2.14,1.59-2.84-.91-.41-1.46-.96-2.88-1.27-4.36-.34-1.61-1.48-1.42-2.57-1.32-1.29,.12-.56,1.15-.72,1.78-.91-1.89-.91-1.88,.99-2.13,.26-.03,.5-.24,.75-.37Z"/><path class="cls-67" d="M84.41,65.8c.62-.42,1.19-1.04,1.87-1.23,3.6-1,4.77-4.15,6.32-6.97,.12-.21,.19-.43-.05-.62,.41-.73,1.13-.93,1.87-1.11,.38-.11,.68-.11,.62,.43,.55,1.54-.54,2.63-1.07,3.87-.34,1.73-1.84,2.44-3.01,3.47-1.23,1.08-2.46,2.15-3.78,3.12-.4,.24-.9,.24-1.29,.53-1.31,1.79-2.62,3.57-3.92,5.36-.13-.07-.26-.13-.38-.2,.76-2.28,1.8-4.46,2.83-6.64Z"/><path class="cls-52" d="M99.26,28.14c-.27,2.6-1.91,4.65-2.86,6.98-.14,.34-.37-.26-.62-.31,0,0-.12-.01-.12-.01-.31-.43-.27-.99-.5-1.45-.03-.58,.22-1.19-.11-1.75-.99-3.3,.62-6.23,1.54-9.41,.89,1.99,1.78,3.97,2.67,5.96Z"/><path class="cls-16" d="M78.84,59.85c-2.04,1.6-4.19,1.94-6.52,.41,1.9-1.68,4.02-3.08,6.45-3.99,.44-.57,1.06-.84,1.73-1.05,1.78-.05,3.58-.49,5.31,.3,.32,.77-.34,.95-.77,1.28-.52,.27-1.13,.35-1.58,.76-.96,.73-2.08,1.18-3.12,1.76-.43,.36-1.08,.12-1.5,.52Z"/><path class="cls-79" d="M146.23,97.26c.3-1.47-.47-3.04,.54-4.47,.36-.51,.45-.94,1.28-.68,.69,.22,1.51,.12,2.26,.04,1-.11,1.84,.31,2.22,1.06,.41,.83,.21,1.74-.57,2.53-.77,.78-1.91,1.47-1.53,2.9,.11,.4-.07,.62-.43,.75-1.11-.55-2.17-1.27-3.51-.95-.61-.28-.45-.73-.25-1.19Z"/><path class="cls-36" d="M150.04,99.34c.13-.23,.26-.46,.39-.69,2.76-1.85,3.7-1.91,5.38-.33,.64,.61,1.05,1.28,.48,2.15-.31,.48-.22,1.02-.25,1.53-.11,1.49-.91,2.05-2.34,1.84-1.45-.33-2.87-.71-3.87-1.93-.24-.88-.38-1.76,.21-2.57Z"/><path class="cls-39" d="M90.81,33.37c.79,.64,.75,1.45,.58,2.36-.23,1.3-.39,2.63-.46,3.95-.04,.74,.54,1.25,1.04,1.75,1.19,1.18,2.35,2.39,3.09,3.92,.05,.78-.47,.82-1.04,.8-1.87-1.7-3.34-3.75-5.03-5.61-.39-.44-.27-1-.31-1.52-.6-1.28-.41-2.71-.81-4.03,.66-.67,.92-1.42,.44-2.3,.01-.24,.03-.49,.04-.73,.24-.21,.08-.61,.37-.8,.59-.04,.39,.55,.64,.8,.23,.74,1.02,.89,1.46,1.4Z"/><path class="cls-34" d="M146.23,97.26c.24,.32,.22,.63-.01,.94-.16,1.09-.62,2.09-.9,3.14-.66-.36-1.28,.79-1.95,.06,.81-.55,.4-.76-.26-.84-1.69-.19-2.65-1.34-3.53-2.62-.63-.92-.09-2.44,1.39-3.3,.99-.58,2.16-1.05,3.1,.24,.63,.87,.98,2,2.16,2.37Z"/><path class="cls-69" d="M87.03,66.49c2.2-2.24,5.03-3.77,6.94-6.32,0,.35,0,.7,0,1.05-.28,.34-.19,.84-.5,1.18-.25,.29-.2,.7-.38,1.02-.29,.43-.52,.91-.78,1.36-.32,.33-.51,.75-.83,1.07-.11,.33-.23,.67-.34,1-.38,.38-.75,.77-.99,1.27-.48,.75-.9,1.52-1.14,2.38,0,0,.01,.16,.01,.16-1.48,1.23-1.59,3.24-2.8,5v-4.55c.31-.96,.1-1.96,.14-2.93,.03-.65-.02-1.3,.65-1.68Z"/><path class="cls-2" d="M143.36,101.39c.58,.39,1.18-.87,1.75,.02,.89,.25,1.47,.9,2,1.61,.04,.16,.05,.31,.03,.47-.08,.38-.17,.76-.26,1.15-.11,.39-.3,.73-.64,.97-1.57,1.99-3.6,2.35-5.33,.7-.97-.93-.64-2.41-.65-3.66-.01-1.09,1.03-.62,1.6-.82,.49-.18,1-.29,1.5-.43Z"/><path class="cls-66" d="M80.2,38.35c2.14,2.32,4.33,4.59,6.7,6.68,.27,1.09-.44,.82-.94,.6-.96-.43-1.85-1.01-2.8-1.47-.74-.36-1.46-.76-2.31-.78-.8-.08-1.62,.06-2.4-.19-.17-.07-.31-.19-.4-.36,.74-.1,1.48-.2,2.61-.35-1.61-.88-2.98-1.52-4.23-2.33-1.21-.78-2.31-1.74-3.33-2.96,1.9,.46,3.78,.96,5.69,1.34,.41,.08,1.08,.81,1.41-.19Z"/><path class="cls-3" d="M264.09,40.07c.04-.58-.02-1.19,.14-1.74,.18-.57,.02-1.63,1.13-1.37,.85,.2,1.85,.25,1.95,1.59,.13,1.8,.46,3.58,.71,5.36-.01,.15-.03,.31-.04,.47-.93-1.19-1.72-1.13-2.68,.07-.98,1.22-2.2,2.25-3.27,3.41-.57,.62-1.07,.65-1.84,.32-1.08-.46-.89-.81-.12-1.38,1.59-1.18,3.09-2.51,4.75-3.58,1.43-.92,1.34-1.63,.09-2.52-.28-.2-.55-.43-.82-.64Z"/><path class="cls-53" d="M80.89,42.92c1.87,.18,3.29,1.35,4.89,2.14,.3,.15,.8,1.07,1.12-.04,.71,.35,1.43,.69,2.14,1.04,.18,1.09,1.3,1.06,1.94,1.6,.9,.77,.57,1.08-.39,1.25-.54,.02-1.06-.13-1.51-.39-3.23-1.82-6.87-2.23-10.39-3.05-1.55-.28-3.05-.76-4.61-1.04-.63-.11-1.29-.27-1.37-1.1,.52-.58,1.31,.02,1.86-.42,1.16-.03,2.32-.05,3.48-.08,.04,.06,.09,.11,.15,.14,.9,.13,1.8,.22,2.7-.06Z"/><path class="cls-119" d="M84.79,56.63c.34-.23,.69-.46,1.03-.7,.07-.84-.59-.51-.93-.51-2.13-.03-4.26-.08-6.37,.2-.18,.02-.35,.06-.52,.12-1.22,.05-2.35,.42-3.45,.91-1.35,.45-2.68,.94-4.11,1.1-.51,.16-.95,.2-.91-.55,.59-.86,1.16-1.74,2.03-2.35,.6-.33,1-1.25,1.92-.66,.67,.79,1.58,.7,2.47,.7,2.05-.26,4.12-.26,6.18-.48,1.59-.17,3.18-.4,4.77-.58,1.47-.61,3.08-.33,4.58-.7-2.65,1.23-4.38,3.9-7.35,4.62-.4-.73,.38-.77,.65-1.1Z"/><path class="cls-32" d="M146.94,103.51c0-.11,0-.23,0-.34,.92-.58,1.85-1.11,3-.91,1,.66,2.29,.89,2.95,2.04,.03,2.85-.91,4.23-3.01,4.4-.35-.13-.67-.03-1.01,.06-1.19,.31-1.89-.13-2.06-1.36-.09-.71-.01-1.44-.14-2.15,.24-.55,.29-1.14,.27-1.74Z"/><path class="cls-126" d="M146.99,107.2c.2,1.96,1.87,1.1,2.88,1.5-.74,.08-.9,.5-.88,1.2,.09,2.86,.08,5.72,.19,8.58,.04,.95,.1,1.87-1.11,1.94-1.17,.07-1.18-.87-1.18-1.73,0-1.17-.01-2.34-.02-3.51-.12-2.67-.35-5.33,.12-7.99Z"/><path class="cls-45" d="M102.47,56.27c-.5,.38-.41,.94-.36,1.44,.23,2.81-.44,5.5-1.05,8.2-.18,.81-.05,1.6-.04,2.4-1.24,1.81-1.11,3.86-1.02,5.9,.26,.8,.09,1.68,.44,2.48,.12,.29-.16,.5-.51,.43-.11-.01-.22-.03-.34-.05-.23-.33-.47-.66-.7-.99,.81-1.23,.81-2.61,.73-4-.3-5.19,.34-10.31,1.05-15.43,.14-1.04,.89-1.11,1.71-1.09,.03,.24,.06,.48,.09,.72Z"/><path class="cls-30" d="M45.61,63.35c-1.06-.07-1.22-1-1.51-1.71-.46-1.11-1.11-1.72-2.37-1.47,1.56-.59,1.58-.59,2.75,.79,.19-1.13-.21-2.75,1.97-2.22-.32-.45-.56-.78-.8-1.11,1.81,.92,3.61,1.85,5.7,2.91-2.11,1.03-3.92,1.92-5.73,2.8Z"/><path class="cls-58" d="M87.98,34.82c1.29,1.23,.46,2.81,.69,4.21-1.29-1.57-2.57-3.14-3.85-4.71-.51-.62-1.1-.95-1.96-.93-2.16,.05-4.32,0-6.48,0,2.26-.53,4.58,.03,6.89-.37-.1-.96-1.23-1.41-.97-2.4-.09-.43-.49-.96,.35-1.09,1.67,1.75,3.25,3.6,5.26,4.99,.24,.06,.26,.16,.07,.31Z"/><path class="cls-107" d="M112.72,53.45c2.47,.94,4.84,2.08,6.75,3.97,.07,.87,.9,1.15,1.35,1.72,.21,.26,.59,.5,.28,.88-.3,.36-.61,.03-.93-.09-1.19-.45-2.22-1.58-3.68-.88-1.39-1.74-2.78-3.48-4.18-5.22,.13-.13,.26-.25,.39-.38Z"/><path class="cls-102" d="M251.05,54.52c-1.58-.39-3.17-.76-4.75-1.16-.21-.05-.47-.19-.58-.36-.33-.51,1.16-3.49,1.7-3.33,1.34,.4,2.93,.17,4,1.36-.72,1.1-.19,2.33-.37,3.49Z"/><path class="cls-89" d="M72.67,43.27c1.9,1.15,4.13,1.13,6.18,1.75-.36,1.28-1.06,1.54-2.89,1.11-1.29-.38-.36,1.49-1.39,1.37-.12-.43-.24-.86-.36-1.28-.32-.45-.59-.94-1.12-1.19-.34-.44-.68-.88-1.02-1.32,.03-.39,.26-.49,.61-.44Z"/><path class="cls-38" d="M122.2,52.65c-1.3-.42-2.6-.85-3.9-1.27,.83-.58,1.83-.57,2.77-.69,.62-.08,1.08-.26,1.46-.73,.27,.7,.94,.54,1.47,.69,.55,.43,1.25-.02,1.81,.32-.53,.97-1.5,.63-2.32,.82-.48,.11-1.5-.36-1.28,.86Z"/><path class="cls-60" d="M101.35,31.55c0,.9-.46,.59-.81,.26-.36-.34-.2-.86-.28-1.29-.35-.9,.2-1.92-.33-2.8,.06-1.11,.27-2.19,.71-3.22,.38,.29,.06,.78,.33,1.11-.11,1.6-.25,3.2-.3,4.8-.01,.44-.42,1.29,.68,1.14Z"/><path class="cls-105" d="M146.99,107.2c-.04,2.66-.08,5.33-.12,7.99-.53-2.34-.13-4.72-.29-7.07-.06-.84,.27-1.74-.34-2.51,.11-.35,.22-.7,.32-1.05,.35-.07,.52,.04,.42,.42,0,.74,0,1.48,0,2.22Z"/><path class="cls-94" d="M152.89,104.3c-.95-.55-2-.94-2.81-1.73-.13-.22-.09-.42,.1-.58,1.17,.62,2.35,1.24,3.52,1.85-.31,.08-.65,.11-.81,.46Z"/><path class="cls-41" d="M87.03,66.49c-.92,1.42-.09,3.15-.79,4.61-.38-1.25,.34-2.6-.35-3.83,.17-.57,.58-.79,1.14-.78Z"/><path class="cls-30" d="M45.67,57.66c-1.82-.54-1.91-1.31-.38-3.48,.08,1.16-1.37,2.5,.38,3.48Z"/><path class="cls-99" d="M110.6,74.27c.04-1.24,.92-2.48,0-3.76,.65,.4,.87,1,1.05,1.64-.63,.57-.26,1.63-1.04,2.12Z"/><path class="cls-136" d="M88.28,30.98c-.33-.67-.29-1.41-.35-2.12-.02-.63-.56-1.38,.38-1.81,.11,.59,.21,1.18,.32,1.77-.28,.42,.04,.82,.03,1.24,0,.36-.02,.71-.38,.92Z"/><path class="cls-132" d="M92.57,29.15c-.23-.11-.45-.22-.68-.33-.43-1.02-.46-2.09-.35-3.17,.1-.19,.2-.19,.3,0-.05,1.23,.39,2.36,.73,3.5Z"/><path class="cls-118" d="M74.56,56.64c1.02-.9,2.25-1.11,3.55-1.04,.08,.09,.1,.16,.05,.22-.04,.05-.08,.07-.13,.07-1.16,.25-2.32,.5-3.47,.75Z"/><path class="cls-63" d="M112.01,72.49c.68-1.01,.08-2.17,.35-3.23,.43,.79,.2,1.68,.35,2.51,.09,.55,.58,1.22-.41,1.47-.09-.25-.19-.5-.28-.75Z"/><path class="cls-139" d="M78.84,59.85c.3-.48,.83-.59,1.29-.81,.33,.08,.7,.11,.87,.48-.61,.36-1.22,.71-1.83,1.07,.06-.33,.36-.75-.33-.74Z"/><path class="cls-56" d="M121.55,38.72c-.34-.67-1.03-.19-1.5-.44,.83-.2,1.65-.4,2.48-.6,.25,.2,.24,.41,.02,.62-.33,.14-.67,.28-1,.42Z"/><path class="cls-55" d="M88.39,29.92c-.04-.39-.15-.8,.24-1.1,.24,1.05,.48,2.1,.72,3.14-.22-.23-.44-.47-.67-.7-.37-.39,0-.93-.29-1.34Z"/><path class="cls-140" d="M100.7,23.88c-.17-.68,.35-1.18,.53-1.79,.17,.74,.33,1.46-.14,2.16-.23-.02-.26-.25-.4-.37Z"/><path class="cls-133" d="M88.31,27.05c-.65,.49-.17,1.22-.38,1.81-.53-.91-.17-1.93-.37-2.88,.14-.11,.26-.1,.39,.02,.15,.34,.49,.62,.37,1.05Z"/><path class="cls-61" d="M112.3,73.24c.68-.34,.18-1,.41-1.47,.43,.74,.44,1.51,.25,2.34-.58-.06-.6-.48-.66-.87Z"/><path class="cls-57" d="M95.05,31.6c.4,.51,.27,1.15,.41,1.73,.04,.33,.31,.78-.38,.71-.13-.34-.26-.67-.4-1.01,.56-.37,.17-.98,.37-1.44Z"/><path class="cls-50" d="M99.94,27.72c.78,.86,.24,1.86,.33,2.8-.6-.79-.12-1.73-.36-2.57-.06-.09-.05-.16,.03-.23Z"/><path class="cls-121" d="M91.84,25.64h-.15s-.15,0-.15,0c-.4-.69-.56-1.4-.19-2.33,.19,.87,.34,1.6,.5,2.32Z"/><path class="cls-122" d="M78.03,55.89c.03-.1,.05-.19,.08-.29,0,0-.02,0-.02,0,.7-.31,1.4-.29,2.1-.01-.36,.46-.85,.66-1.42,.67-.25-.12-.49-.25-.74-.37Z"/><path class="cls-118" d="M73.49,54.18c-.78-.19-1.25,.54-1.92,.66,.28-.34,.56-.69,.85-1.03,.39,.04,.82-.06,1.08,.37Z"/><path class="cls-118" d="M69.54,57.2c.17,.4,.52,.5,.91,.55-.51,.19-1.03,.37-1.61,.58,0-.63,.36-.87,.7-1.13Z"/><path class="cls-131" d="M87.93,26c-.13,0-.26-.02-.38-.02-.45-.39-.24-.9-.26-1.37,.4-.24,.48,.13,.65,.34,0,.35,0,.71-.01,1.06Z"/><path class="cls-97" d="M87.98,34.82c-.06-.1-.08-.2-.07-.31,.67-.49,.18-1.22,.4-1.81,.31,.77,.88,1.58-.33,2.12Z"/><path class="cls-72" d="M82.66,29.51c-.43,.26-.26,.72-.35,1.09-.28-.44-.75-.91-.48-1.4,.16-.29,.71-.25,.83,.31Z"/><path class="cls-127" d="M254.94,55.59c.23,.41,.63,.34,1,.35-.24,.45-.58,.71-1.06,.35-.27-.2-.51-.51,.05-.7Z"/><path class="cls-65" d="M88.39,29.92c.44,.37,.24,.89,.29,1.34-.01,.28-.06,.54-.34,.7-.02-.33-.05-.66-.07-.99,.04-.35,.08-.7,.12-1.06Z"/><path class="cls-104" d="M87.95,24.94c-.22-.11-.44-.23-.65-.34,.04-.26-.01-.67,.4-.54,.39,.12,.25,.56,.25,.88Z"/><path class="cls-109" d="M100.7,23.88c.13,.12,.26,.25,.4,.37-.04,.45-.08,.9-.12,1.35-.37-.29-.24-.73-.33-1.11,.02-.21,.03-.41,.05-.62Z"/><path class="cls-130" d="M122.57,67.57c.01-.24,.02-.48,.04-.73,.38,.19,.75,.45,.49,.91-.12,.21-.4,.04-.53-.18Z"/><path class="cls-71" d="M114.83,29.89c-.06-.33-.1-.66-.46-.82,.29-.4,.81-.46,1-.14,.17,.29-.2,.71-.54,.95Z"/><path class="cls-124" d="M125.79,50.97c-.63,.03-1.29,.24-1.81-.32,.63-.02,1.26-.11,1.81,.32Z"/><path class="cls-54" d="M99.92,77.12c.47-.96-.19-1.95,.08-2.91,.39,1.04,.61,2.12,.68,3.23-.24,.21-.46,.22-.66-.06-.03-.09-.06-.17-.09-.26Z"/><path class="cls-125" d="M100.02,77.38c.22,.02,.44,.04,.66,.06,.21,.13,.39,.4,.15,.52-.52,.26-.66-.2-.81-.57Z"/><path class="cls-23" d="M267.31,25.27c-.59,.48-.89,.96-.76,1.84,.22,1.41,.26,2.85,.71,4.22,.26,.2,.23,.41,.03,.64,0,.06-.01,.12-.01,.17q.14,2.75-2.8,3.08v-3.26c-.29-1.1,.99-2.03,.35-3.17-.2-1.03-.86-1.69-1.75-2.16-.54-.61-1.04-1.27-1.63-1.83-1.35-1.26-.52-2.42,.1-3.6,.43-.81,.79-.08,1.06,.14,1.59,1.28,3.14,2.61,4.71,3.92Z"/><path class="cls-20" d="M252.12,37.19c-.42,.47-.84,.94-1.46,1.17-1.55,1.07-2.24,.98-4.11-.54-1.01-1.04-1.02-2.28-.74-3.58,.08-.19,.2-.34,.38-.44,1.05-1.74,2.65-2.06,4.5-1.74,2.33,2.29,2.45,2.73,1.44,5.13Z"/><path class="cls-22" d="M261.67,30.21c-.36,1.17-.72,2.35-1.08,3.52-.38,.31,.09,1.18-.72,1.18-.61,0-.89-.53-1.07-1-.54-1.44-1.51-2.76-1.39-4.4,.14-.37,.28-.74,.42-1.12,.44-1.15,1.02-1.22,1.82-.29,.64,.74,1.34,1.41,2.02,2.11Z"/><path class="cls-19" d="M247.93,23.15c-.08-.83,.19-1.24,1.1-.98,.9,.26,1.81,.48,2.71,.73,.64,.99,1.28,1.99,1.91,2.98-2.05-.82-4.29-.99-5.72-2.73Z"/><path class="cls-10" d="M257.41,29.5c.57,1.37,1.13,2.75,1.72,4.12,.17,.39,.21,1.03,.77,.98,.25-.02,.46-.57,.68-.87-.05,.5,.17,1.06-.37,1.43-.46,0-.92,0-1.38,0-1.6-1.12-2.38-4.19-1.43-5.65Z"/><path class="cls-12" d="M263.08,26.64c1.36,.09,2.09,.7,1.75,2.16-.58-.72-1.17-1.44-1.75-2.16Z"/><path class="cls-101" d="M246.19,33.79c-.02,.11-.06,.22-.11,.32-.09,.94-.48,1.55-1.35,2.13-1.28,.86-2.03,2.34-3.04,3.52-.41,.48-.72,1.06-1.33,1.33-.08,.01-.17,.02-.25,.04-1.03-.97-1.94-2-1.47-3.59-.53-1.65-.05-3.12,.79-4.53,1.53-1.37,3.18-.1,4.76-.15,.6-.02,1.76-.27,2,.92Z"/><path class="cls-18" d="M237.37,24.94c-.75,1.25-1.87,1.66-3.45,1.43,.81-1.92,1.59-3.78,2.38-5.63,.39-.53,.83-.92,1.52-1.09,2.3-.57,4.59-1.19,7.02-1.83-.1,1.61-.72,2.52-2.17,2.91-1.18,.32-2.28,.98-3.46,1.22-1.8,.37-2.23,1.38-1.83,2.99Z"/><path class="cls-25" d="M238.34,28.82c.4-1.57,2.15-1.9,2.9-3.14,1.42-.92,2.81,.25,4.27,.14-2.27,1.32-4.74,2.12-7.18,3.01Z"/><path class="cls-4" d="M239.43,33.02c-.26,1.51-.52,3.02-.79,4.53q-2.17,.97-2.04-2.38c.82-.83,1.65-1.67,2.47-2.5,.12,.12,.24,.24,.36,.35Z"/><path class="cls-7" d="M246.82,37.64c1.15,.95,2.4,1.32,3.84,.71,.26,1.2,1.47,1.36,2.23,2.01,.96,.82,2.19,1.28,2.92,2.4,.58,.9,.55,1.53-.56,1.88-1.28,.5-2.67-.07-3.94,.44-1.09,.11-2.17,.14-3.26-.02-.28-.06-.6-.09-.82-.29-1.63-1.47-1.86-5.47-.41-7.14Z"/><path class="cls-15" d="M251.42,44.65c1.28-.57,2.55-.37,3.83,0,.34,.27,1.01,.29,.96,.85-.04,.46-.62,.44-.98,.55-1.27,.4-2.55,.76-3.83,1.13,0,0,.02-.08,.02-.08-.65-.81-.62-1.63,0-2.45Z"/><path class="cls-98" d="M259.94,39.02c-.26,.7-.52,1.41-.78,2.11-.77,.46-1.62,.61-2.79,.35,1.05-.95,2.09-1.9,3.14-2.85,.33-.08,.48,.05,.42,.39Z"/><path class="cls-96" d="M259.94,39.02c-.14-.13-.28-.26-.43-.39,.24-.23,.48-.46,.72-.68,.39,.49-.05,.76-.3,1.07Z"/><path class="cls-29" d="M194.95,47.13c.03,.47,.05,.94,.08,1.41-.25,1.8-1.15,3.23-2.55,4.36-.75,.29-1.49,.58-2.24,.87-.52,.36-1.04,.36-1.56,0-.39-.1-.77-.2-1.16-.3-1.41-.73-2.51-1.77-3.27-3.16-.45-1.67-.38-3.3,.35-4.89,1.09-1.54,2.59-2.44,4.43-2.82,2.98,.19,5.03,1.61,5.92,4.53Z"/><path class="cls-135" d="M188.68,53.77c.52,0,1.04,0,1.56,0,.09,.13,.75,.15,.22,.35-.59,.22-1.4,.22-2,0-.53-.2,.13-.22,.22-.35Z"/><path class="cls-87" d="M102.38,55.55c-.57,.36-1.14,.73-1.71,1.09-1.17,.14-2.35,.28-3.52,.42-.7-.25-1.41-.5-2.11-.76-.21-.14-.41-.28-.62-.43-.89-.83-1.55-1.83-2.17-2.86-.12-.67-.25-1.34-.37-2.01-.55-.57-.22-1.2-.12-1.82,.21-.7,.38-1.43,1.14-1.78,.37-.42,.74-.84,1.11-1.26,.35-.27,.69-.53,1.04-.8,.35-.16,.7-.32,1.05-.49,.7-.11,1.4-.21,2.1-.32,1.26,.12,2.42,.53,3.54,1.09,.41-.09,.54,.22,.67,.5,.6,.91,1.2,1.83,1.8,2.74,0,.24-.02,.49-.03,.73-.25,.82-.24,1.63,0,2.45-.08,.47-.17,.94-.25,1.42-.4,.58-.8,1.15-1.21,1.73-.11,.12-.23,.24-.34,.36Z"/><path class="cls-117" d="M109.4,68.01c.63,.38,.95,.93,1.04,1.6,0,.05-.38,.23-.39,.2-.39-.52-.78-1.06-.64-1.81Z"/><path class="cls-31" d="M112,66.5c.23,.69,.25,1.38,.03,2.07-.04,.23-.07,.46-.11,.69-.14-.93-.65-1.87,.08-2.76Z"/><path class="cls-27" d="M109.92,76.45c-.5-.44-.54-.94-.15-1.68,.06,.68,.1,1.18,.15,1.67,0,0,0,0,0,0Z"/><path class="cls-80" d="M104.18,52.05c-.51-.82-.51-1.63,0-2.45,.2,.82,.2,1.63,0,2.45Z"/><path class="cls-21" d="M245.74,46.78c-.05,.67-.07,1.43-1.06,.79-1.29-.83-2.76-1.42-3.8-2.63-.26-1.27-.52-2.54-.78-3.82,0,0,0-.01,0-.01,.34-.27,.68-.17,.93,.1,1.45,1.59,3.07,3.01,4.49,4.62,.22,.25,.44,.56,.21,.94Z"/><path class="cls-129" d="M183.54,47.15v2.07c-.05,0-.11,0-.16,0v-2.07c.05,0,.11,0,.16,0Z"/><path class="cls-114" d="M92.09,49.28c-.07,.57-.14,1.15-.21,1.72-4.57,.11-8.94-.66-13.04-2.78-.87-.45-1.82-.75-2.73-1.1-.66-.25-.28-.63-.15-.99,.93-.46,2.22,.02,2.89-1.11,3.58,.88,7.33,1.22,10.59,3.18,.38,.23,.87,.25,1.32,.37,.44,.24,1.1,.09,1.33,.72Z"/><path class="cls-118" d="M86.91,53.82c-1.02,.67-2.24,.58-3.33,.64-2.54,.14-5.07,.68-7.63,.42,1.56-.79,3.28-.24,4.92-.6,1.95-.43,4.02-.33,6.03-.46Z"/><path class="cls-70" d="M92.09,49.28c-.48-.17-.98-.31-1.33-.72,.44-.08,.69-.19,.11-.52-.8-.45-1.74-.78-2.35-1.42-.8-.83,.3-.39,.52-.56,1.27,.49,2.71,.51,3.86,1.34-.27,.63-.54,1.25-.81,1.88Z"/><path class="cls-43" d="M89.02,70.49c-.04-1.02,.43-1.83,1.06-2.58,.16,.07,.27,.19,.33,.35-.46,.74-.92,1.49-1.39,2.23Z"/><path class="cls-90" d="M92.09,64.72c.26-.47,.52-.94,.78-1.41,.35-.08,.52,.01,.41,.4-.24,.35-.47,.7-.71,1.04-.17,.15-.33,.14-.48-.03Z"/><path class="cls-111" d="M90.41,68.26c-.11-.12-.22-.24-.33-.35,.04-.68,.4-1.02,1.08-1.06,0,.6-.42,.98-.75,1.42Z"/><path class="cls-106" d="M93.28,63.71c-.14-.13-.28-.27-.41-.4,.07-.37,.06-.77,.4-1.04,.34-.09,.48,.04,.43,.38-.06,.39,.02,.83-.42,1.06Z"/><path class="cls-95" d="M92.09,64.72l.48,.03c-.34,.38-.35,1.09-1.07,1.09,0-.48,.28-.81,.59-1.12Z"/><path class="cls-59" d="M93.7,62.65c-.14-.13-.29-.26-.43-.38,.24-.35,.47-.7,.71-1.05-.02,.49,.14,1.01-.27,1.43Z"/><path class="cls-13" d="M267.29,31.98c0-.21-.02-.43-.03-.64,.15-.6-.14-1.25,.36-2.09-.05,1.1,.32,1.96-.33,2.73Z"/><path class="cls-33" d="M33.93,67.54c-.93,.11-1.85,.23-2.78,.34-1.68-.39-3.21-1.07-4.54-2.18-.78-1.06-1.4-2.21-1.88-3.44-.26-2.75,.4-5.17,2.52-7.08,1.56-1.18,3.37-1.53,5.28-1.53,.82,.21,1.64,.42,2.46,.63,2.24,1.51,3.7,3.51,3.93,6.28-.07,1.47-.58,2.81-1.17,4.13-1.07,1.22-2.35,2.16-3.82,2.85Z"/><path class="cls-9" d="M245.74,46.78c-1.67-2.09-3.53-3.99-5.63-5.66,1.29-1.62,2.64-3.19,3.84-4.88,.61-.85,2.15-.71,2.13-2.13,.06,1.22-.28,2.52,.74,3.53-1.24,2.1-.48,4.11,.25,6.13,.16,.45,.27,.89,.87,.9,.08,.13,.09,.26,.01,.39-.22,.19-.57,.05-.77,.3-.61,.34-.51,1.41-1.44,1.41Z"/><path class="cls-103" d="M247.9,45.01c0-.11,.02-.23,.04-.34,1.16,0,2.32-.01,3.48-.02,0,.82,0,1.63,0,2.45-1.28,.23-1.77-1.16-2.83-1.38-.26-.21-.6-.33-.7-.7Z"/><path class="cls-7" d="M247.9,45.01c.23,.23,.47,.47,.7,.7-.47-.12-.95-.23-1.42-.35,.15-.29,.42-.35,.72-.35Z"/><path class="cls-110" d="M102.41,46.14c-.22-.17-.44-.33-.67-.5,.7-.75,1.4-1.49,2.04-2.19,.9,.08-.29,1.23,.76,1.15-.53,.76-2.02,.21-2.13,1.54Z"/><path class="cls-88" d="M81.01,59.51c-.34-.06-.7-.11-.87-.48,1.06-.58,2.12-1.16,3.19-1.74,.42-.04,.59,.12,.48,.54-.69,.96-1.85,1.13-2.79,1.67Z"/><path class="cls-93" d="M83.8,57.84c-.16-.18-.32-.36-.48-.54,.37-.48,.86-.71,1.47-.67-.22,.37-.43,.73-.65,1.1-.11,.04-.23,.07-.34,.11Z"/><path class="cls-134" d="M95.08,34.04c.13-.24,.26-.48,.38-.71,.39,.45,.27,.96,.21,1.47-.45-.06-.64-.31-.59-.76Z"/><path class="cls-118" d="M80.2,55.59c-.7,0-1.4,0-2.1,.01,2.54-.78,5.13-.26,7.7-.28,.39,0,.3,.38,.04,.61-1.84-.72-3.76-.17-5.63-.34Z"/><path class="cls-5" d="M150.17,101.99c-.03,.19-.07,.39-.1,.58-1.13-.24-1.99,.93-3.14,.6-.73-.46-1.42-.95-1.82-1.76-.17-1.26,.08-2.37,1.11-3.22,1.54-.52,2.85-.25,3.82,1.14,.35,.87-.03,1.77,.14,2.65Z"/><path class="cls-113" d="M146.99,104.98c-.14-.14-.28-.28-.42-.42-.03-.4,0-.78,.37-1.05,.47,.47,.42,.97,.05,1.47Z"/><path class="cls-62" d="M80.89,42.92c-.89,.53-1.79,.49-2.7,.06,.9-.02,1.8-.04,2.7-.06Z"/></g></svg>